{"glyphs":{"0":{"ha":581,"x_min":169,"x_max":431,"o":"m 300 105 q 278 313 280 187 q 169 234 218 260 q 268 365 196 290 q 169 496 196 438 q 278 417 218 468 q 300 625 280 542 q 321 417 317 542 q 431 496 379 468 q 331 365 401 438 q 431 234 401 290 q 321 313 379 260 q 300 105 317 187 z "},"1":{"ha":609,"x_min":62,"x_max":107,"o":"m 62 373 q 62 373 62 373 q 62 373 62 373 q 83 633 62 520 q 107 373 107 526 q 107 373 107 373 q 107 373 107 373 q 83 351 107 361 q 62 373 62 361 z "},"2":{"ha":593,"x_min":54,"x_max":99,"o":"m 77 105 q 54 365 54 210 q 77 625 54 518 q 99 365 99 528 q 77 105 99 200 z "},"3":{"ha":581,"x_min":75,"x_max":524,"o":"m 300 625 q 323 377 323 526 q 524 236 456 298 q 300 339 425 266 q 75 236 175 266 q 278 377 145 300 q 300 625 280 534 m 300 365 l 300 365 l 300 365 l 300 365 z "},"4":{"ha":589,"x_min":123,"x_max":490,"o":"m 490 183 q 308 333 405 234 q 123 183 198 228 q 276 365 183 272 q 123 548 177 466 q 308 397 198 500 q 490 548 405 494 q 339 365 446 480 q 490 183 440 258 z "},"5":{"ha":589,"x_min":54,"x_max":546,"o":"m 300 327 q 147 155 216 218 q 264 353 181 236 q 54 444 133 397 q 278 395 137 437 q 300 625 278 522 q 321 395 317 536 q 546 444 460 437 q 335 353 464 397 q 452 155 417 236 q 300 327 381 218 z "},"6":{"ha":595,"x_min":42,"x_max":560,"o":"m 560 365 q 339 343 478 345 q 431 141 403 230 q 302 321 365 212 q 173 141 236 212 q 264 343 198 230 q 42 365 125 345 q 264 387 125 383 q 173 589 196 506 q 302 409 236 516 q 431 589 365 516 q 339 387 405 506 q 560 365 478 383 z "},"7":{"ha":589,"x_min":46,"x_max":552,"o":"m 298 440 q 411 625 363 563 q 339 423 389 534 q 552 448 474 448 q 347 379 484 415 q 500 230 444 296 q 321 345 425 266 q 298 133 317 218 q 278 345 280 216 q 97 230 169 264 q 250 379 151 296 q 46 448 111 415 q 260 423 121 448 q 187 625 204 544 q 298 440 244 548 z "},"8":{"ha":589,"x_min":36,"x_max":554,"o":"m 296 105 q 274 313 276 187 q 111 183 173 218 q 242 343 157 256 q 36 365 113 345 q 242 387 113 383 q 111 548 159 474 q 274 419 169 512 q 296 625 276 546 q 317 419 310 546 q 478 548 417 510 q 347 387 429 474 q 554 365 474 383 q 347 343 474 345 q 478 183 431 256 q 317 313 413 220 q 296 105 310 187 z "},"9":{"ha":589,"x_min":30,"x_max":540,"o":"m 306 321 q 284 121 302 198 q 264 321 266 204 q 117 183 173 224 q 230 349 155 254 q 30 335 113 331 q 222 391 101 365 q 60 510 121 452 q 244 429 139 486 q 196 625 206 540 q 284 444 240 552 q 373 625 335 569 q 325 429 361 540 q 508 510 431 486 q 347 391 456 460 q 540 335 468 365 q 339 349 454 331 q 450 183 415 250 q 306 321 389 228 z "}," ":{"ha":331,"x_min":0,"x_max":0,"o":""},"A":{"ha":728,"x_min":20,"x_max":992,"o":"m 185 135 l 20 135 l 423 595 l 581 595 l 992 135 l 806 135 l 496 506 q 339 319 417 411 q 185 135 262 228 z "},"B":{"ha":931,"x_min":16,"x_max":994,"o":"m 760 520 l 514 520 l 351 520 l 417 595 l 825 595 q 948 573 907 595 q 990 506 986 552 l 992 450 q 962 397 994 417 q 869 373 931 375 q 940 343 925 367 q 921 284 952 321 l 871 226 q 760 157 829 179 q 581 135 685 135 l 16 135 l 87 218 l 252 218 l 629 218 q 700 226 679 218 q 746 260 728 240 l 776 294 q 788 325 796 315 q 730 335 778 335 l 353 335 l 190 335 l 256 411 l 419 411 l 766 411 q 823 419 810 411 q 839 444 841 425 l 837 488 q 819 512 837 506 q 760 520 806 520 z "},"C":{"ha":865,"x_min":0,"x_max":1095,"o":"m 901 512 l 617 512 l 454 512 l 202 222 l 647 222 l 813 222 q 722 159 762 175 q 562 135 665 135 l 137 135 q 16 159 34 135 q 56 244 0 181 l 266 486 q 377 571 321 550 q 538 595 433 595 l 962 595 q 1081 571 1065 595 q 1065 512 1095 554 l 901 512 z "},"D":{"ha":946,"x_min":24,"x_max":1185,"o":"m 24 135 l 99 222 l 480 222 q 752 256 647 222 q 923 369 853 292 q 956 476 982 438 q 812 512 927 512 l 353 512 l 425 595 l 883 595 q 1133 536 1079 595 q 1093 369 1185 476 q 950 252 1034 300 q 764 171 859 198 q 625 143 696 151 q 440 135 522 135 l 24 135 z "},"E":{"ha":819,"x_min":16,"x_max":1145,"o":"m 16 135 l 91 222 l 256 222 l 819 222 l 744 135 l 16 135 m 190 335 l 258 415 l 425 415 l 988 415 l 919 335 l 357 335 l 190 335 m 347 518 l 417 595 l 1145 595 l 1077 518 l 514 518 l 347 518 z "},"F":{"ha":851,"x_min":2,"x_max":1123,"o":"m 2 135 l 226 393 l 393 393 l 692 393 l 619 310 l 319 310 l 167 135 l 2 135 m 331 514 l 401 595 l 1123 595 l 1052 514 l 498 514 l 331 514 z "},"G":{"ha":931,"x_min":16,"x_max":1179,"o":"m 990 512 l 885 512 l 472 512 l 220 222 l 738 222 l 825 323 l 631 323 l 623 403 l 1056 403 l 917 244 q 808 159 861 179 q 647 135 748 135 l 155 135 q 34 159 52 135 q 73 244 16 181 l 284 486 q 395 571 343 552 q 556 595 450 595 l 1048 595 q 1167 573 1147 595 q 1151 512 1179 552 l 990 512 z "},"H":{"ha":978,"x_min":36,"x_max":1288,"o":"m 36 135 l 437 595 l 603 595 l 446 417 l 964 417 l 1119 595 l 1288 595 l 887 135 l 718 135 l 891 333 l 375 333 l 202 135 l 36 135 z "},"I":{"ha":319,"x_min":32,"x_max":597,"o":"m 32 135 l 433 595 l 597 595 l 198 135 l 32 135 z "},"J":{"ha":728,"x_min":40,"x_max":1060,"o":"m 179 135 q 58 159 75 135 q 97 244 40 181 l 179 339 l 347 339 l 244 222 l 569 222 l 895 595 l 1060 595 l 754 244 q 643 159 696 179 q 484 135 585 135 l 179 135 z "},"K":{"ha":931,"x_min":20,"x_max":1222,"o":"m 20 135 l 421 595 l 587 595 l 421 403 l 982 595 l 1222 595 l 562 379 l 881 135 l 613 135 l 363 337 l 187 135 l 20 135 z "},"L":{"ha":776,"x_min":60,"x_max":835,"o":"m 60 135 l 460 595 l 627 595 l 302 222 l 835 222 l 760 135 l 60 135 z "},"M":{"ha":1119,"x_min":34,"x_max":1450,"o":"m 700 135 q 601 296 651 214 q 504 458 552 377 l 210 135 l 34 135 l 446 595 l 550 595 l 748 278 l 944 595 l 1060 595 l 1450 135 l 1298 135 l 1018 458 l 817 135 l 700 135 z "},"N":{"ha":903,"x_min":12,"x_max":1194,"o":"m 679 135 q 578 296 629 214 q 480 458 528 377 l 188 135 l 12 135 l 423 595 l 526 595 l 726 274 l 1018 595 l 1194 595 l 782 135 l 724 135 l 724 135 l 679 135 z "},"O":{"ha":966,"x_min":12,"x_max":1210,"o":"m 214 222 l 760 222 l 1014 512 l 468 512 l 214 222 m 278 486 q 389 571 337 552 q 550 595 444 595 l 1073 595 q 1194 571 1177 595 q 1157 486 1210 548 l 944 244 q 833 159 887 179 q 673 135 776 135 l 149 135 q 30 159 44 135 q 67 244 12 179 l 278 486 z "},"P":{"ha":853,"x_min":22,"x_max":942,"o":"m 22 135 l 246 393 l 409 393 l 702 393 q 760 401 740 393 q 772 431 774 409 l 764 480 q 744 508 760 498 q 685 516 724 516 l 516 516 l 353 516 l 423 595 l 746 595 q 873 573 833 595 q 921 506 915 552 l 935 403 q 907 335 942 355 q 788 315 871 315 l 341 315 l 185 135 l 22 135 z "},"Q":{"ha":1000,"x_min":14,"x_max":1214,"o":"m 218 222 l 329 222 l 462 222 l 611 222 l 764 222 l 1018 512 l 470 512 l 218 222 m 282 486 q 393 571 341 552 q 554 595 448 595 l 1077 595 q 1198 571 1181 595 q 1159 486 1214 548 l 948 244 q 837 159 891 179 q 677 135 780 135 l 599 135 l 587 18 l 423 18 l 444 135 l 153 135 q 34 159 48 135 q 71 244 14 181 l 282 486 z "},"R":{"ha":855,"x_min":60,"x_max":980,"o":"m 685 315 l 867 135 l 619 135 l 480 315 l 379 315 l 222 135 l 60 135 l 284 393 l 446 393 l 740 393 q 798 401 778 393 q 810 431 812 409 l 802 480 q 782 508 798 498 q 722 516 762 516 l 554 516 l 391 516 l 458 595 l 784 595 q 911 573 871 595 q 958 506 952 552 l 972 403 q 944 335 980 355 q 825 315 909 315 l 685 315 z "},"S":{"ha":879,"x_min":54,"x_max":1157,"o":"m 982 514 l 887 514 l 516 514 l 431 417 l 875 417 q 996 393 978 417 q 958 308 1010 367 l 903 244 q 792 159 849 183 q 631 135 734 135 l 190 135 q 69 159 87 135 q 89 222 54 175 l 234 222 l 345 222 l 738 222 l 829 327 l 385 327 q 264 349 282 327 q 304 437 248 373 l 347 486 q 458 571 403 550 q 619 595 514 595 l 1022 595 q 1141 573 1121 595 q 1129 514 1157 556 l 982 514 z "},"T":{"ha":633,"x_min":18,"x_max":913,"o":"m 512 512 l 185 135 l 18 135 l 347 512 l 20 512 l 91 595 l 913 595 l 841 512 l 512 512 z "},"U":{"ha":897,"x_min":22,"x_max":1188,"o":"m 550 595 l 224 222 l 696 222 l 1022 595 l 1188 595 l 881 244 q 772 159 825 179 q 611 135 712 135 l 161 135 q 40 159 58 135 q 79 244 22 181 l 385 595 l 550 595 z "},"V":{"ha":669,"x_min":10,"x_max":929,"o":"m 421 135 l 10 595 l 200 595 l 488 264 l 762 595 l 929 595 l 536 135 l 421 135 z "},"W":{"ha":1161,"x_min":32,"x_max":1446,"o":"m 698 595 l 815 595 l 1016 274 l 1296 595 l 1446 595 l 1056 135 l 940 135 l 746 454 l 546 135 l 442 135 l 32 595 l 208 595 l 500 272 q 598 433 548 351 q 698 595 649 514 z "},"X":{"ha":952,"x_min":30,"x_max":1280,"o":"m 30 135 l 573 371 l 425 595 l 643 595 l 734 438 l 1087 595 l 1280 595 l 784 383 l 952 135 l 726 135 l 621 313 l 224 135 l 30 135 z "},"Y":{"ha":845,"x_min":28,"x_max":964,"o":"m 28 135 l 206 341 l 58 595 l 280 595 l 371 419 l 770 595 l 964 595 l 377 343 l 196 135 l 28 135 z "},"Z":{"ha":933,"x_min":10,"x_max":1175,"o":"m 10 135 l 52 185 l 835 512 l 337 512 l 409 595 l 1175 595 l 1135 550 l 343 222 l 849 222 l 774 135 l 10 135 z "},"a":{"ha":760,"x_min":16,"x_max":988,"o":"m 183 135 l 16 135 l 421 595 l 579 595 l 988 135 l 802 135 l 494 506 q 337 319 415 411 q 183 135 260 228 z "},"b":{"ha":929,"x_min":0,"x_max":1139,"o":"m 607 520 l 228 520 l 65 520 l 0 595 l 609 595 q 750 573 690 595 q 849 506 808 550 l 897 450 q 913 397 927 417 q 843 373 897 375 q 962 343 909 367 q 1050 284 1016 321 l 1101 226 q 1109 157 1139 179 q 970 135 1073 135 l 405 135 l 331 218 l 494 218 l 873 218 q 929 226 921 218 q 917 260 937 236 l 885 294 q 841 325 867 313 q 770 335 813 335 l 391 335 l 228 335 l 163 411 l 325 411 l 702 411 q 756 419 748 411 q 750 444 764 423 l 712 488 q 673 512 688 508 q 607 520 651 520 z "},"c":{"ha":843,"x_min":24,"x_max":1123,"o":"m 669 512 l 222 512 l 478 222 l 669 222 l 925 222 l 1089 222 q 1111 159 1123 177 q 992 135 1093 135 l 565 135 q 405 159 460 135 q 294 244 351 179 l 79 486 q 40 571 24 550 q 161 595 58 595 l 585 595 q 746 571 688 595 q 833 512 786 554 l 669 512 z "},"d":{"ha":952,"x_min":48,"x_max":1179,"o":"m 452 135 l 377 222 l 758 222 q 970 256 927 222 q 940 369 1010 292 q 788 476 875 440 q 579 512 694 512 l 121 512 l 48 595 l 506 595 q 861 536 702 595 q 1113 369 1018 474 q 1175 252 1167 304 q 1131 171 1179 200 q 1038 143 1099 151 q 869 135 958 135 l 452 135 z "},"e":{"ha":839,"x_min":40,"x_max":1175,"o":"m 444 135 l 369 222 l 534 222 l 1097 222 l 1175 135 l 444 135 m 268 335 l 198 415 l 365 415 l 929 415 l 998 335 l 435 335 l 268 335 m 109 518 l 40 595 l 768 595 l 837 518 l 274 518 l 109 518 z "},"f":{"ha":792,"x_min":26,"x_max":817,"o":"m 431 135 l 202 393 l 369 393 l 669 393 l 742 310 l 442 310 l 595 135 l 431 135 m 97 514 l 26 595 l 746 595 l 817 514 l 262 514 l 97 514 z "},"g":{"ha":972,"x_min":0,"x_max":1173,"o":"m 718 512 l 571 512 l 200 512 l 456 222 l 974 222 l 883 323 l 613 323 l 613 403 l 976 403 l 1115 244 q 1155 159 1173 179 q 1036 135 1139 135 l 544 135 q 383 159 438 135 q 272 244 327 179 l 58 486 q 18 571 0 548 q 139 595 36 595 l 629 595 q 790 573 726 595 q 877 512 837 550 l 718 512 z "},"h":{"ha":1012,"x_min":20,"x_max":1276,"o":"m 425 135 l 20 595 l 185 595 l 343 417 l 859 417 l 702 595 l 869 595 l 1276 135 l 1107 135 l 933 333 l 417 333 l 589 135 l 425 135 z "},"i":{"ha":300,"x_min":56,"x_max":627,"o":"m 460 135 l 56 595 l 222 595 l 627 135 l 460 135 z "},"j":{"ha":562,"x_min":8,"x_max":804,"o":"m 363 135 q 202 159 258 135 q 91 244 149 179 l 8 339 l 175 339 l 278 222 l 603 222 l 274 595 l 440 595 l 750 244 q 788 159 804 179 q 669 135 772 135 l 363 135 z "},"k":{"ha":925,"x_min":44,"x_max":1310,"o":"m 448 135 l 44 595 l 210 595 l 381 403 l 605 595 l 845 595 l 565 379 l 1310 135 l 1044 135 l 438 337 l 617 135 l 448 135 z "},"l":{"ha":762,"x_min":2,"x_max":1107,"o":"m 407 135 l 2 595 l 169 595 l 498 222 l 1032 222 l 1107 135 l 407 135 z "},"m":{"ha":1139,"x_min":54,"x_max":1468,"o":"m 720 135 q 620 296 671 214 q 522 458 569 377 l 228 135 l 54 135 l 464 595 l 567 595 l 766 278 l 962 595 l 1077 595 l 1468 135 l 1317 135 l 1038 458 l 835 135 l 720 135 z "},"n":{"ha":917,"x_min":30,"x_max":1212,"o":"m 546 135 l 498 135 l 498 135 l 440 135 l 30 595 l 206 595 l 498 274 l 698 595 l 802 595 l 1212 135 l 1036 135 l 744 458 q 643 296 692 377 q 546 135 593 214 z "},"o":{"ha":962,"x_min":60,"x_max":1264,"o":"m 514 222 l 1062 222 l 806 512 l 258 512 l 514 222 m 115 486 q 77 571 60 550 q 196 595 91 595 l 720 595 q 881 571 823 595 q 994 486 935 552 l 1206 244 q 1246 159 1264 179 q 1127 135 1230 135 l 601 135 q 440 159 496 135 q 329 244 389 177 l 115 486 z "},"p":{"ha":871,"x_min":46,"x_max":917,"o":"m 450 135 l 222 393 l 387 393 l 677 393 q 734 401 714 393 q 746 431 748 409 l 738 480 q 716 508 730 500 q 657 516 692 516 l 278 516 l 115 516 l 46 595 l 716 595 q 843 573 804 595 q 893 506 883 552 l 909 403 q 883 335 917 357 q 764 315 847 315 l 456 315 l 613 135 l 450 135 z "},"q":{"ha":978,"x_min":38,"x_max":1244,"o":"m 494 222 l 607 222 l 740 222 l 889 222 l 1042 222 l 786 512 l 238 512 l 494 222 m 97 486 q 58 571 38 550 q 177 595 71 595 l 700 595 q 861 571 804 595 q 974 486 915 552 l 1187 244 q 1226 159 1244 179 q 1107 135 1210 135 l 1030 135 l 1224 18 l 1060 18 l 875 135 l 581 135 q 423 159 478 135 q 310 244 367 179 l 97 486 z "},"r":{"ha":871,"x_min":8,"x_max":1179,"o":"m 413 135 l 185 393 l 347 393 l 639 393 q 696 401 677 393 q 706 431 710 409 l 698 480 q 679 508 694 498 q 617 516 655 516 l 240 516 l 77 516 l 8 595 l 679 595 q 806 573 764 595 q 853 506 847 550 l 871 403 q 845 335 879 357 q 724 315 810 315 l 681 315 l 1179 135 l 929 135 l 472 315 l 417 315 l 575 135 l 413 135 z "},"s":{"ha":831,"x_min":24,"x_max":1115,"o":"m 667 514 l 200 514 l 288 417 l 730 417 q 893 393 835 417 q 1004 308 950 367 l 1062 244 q 1099 159 1115 181 q 978 135 1081 135 l 538 135 q 377 159 433 135 q 264 244 317 183 l 254 256 l 401 256 l 431 222 l 935 222 l 841 327 l 397 327 q 236 349 294 327 q 125 437 179 371 l 79 486 q 40 571 24 550 q 161 595 58 595 l 565 595 q 722 573 663 595 q 831 494 780 550 l 839 484 l 692 484 l 667 514 z "},"t":{"ha":899,"x_min":40,"x_max":938,"o":"m 605 512 l 938 135 l 772 135 l 438 512 l 113 512 l 40 595 l 861 595 l 933 512 l 605 512 z "},"u":{"ha":917,"x_min":8,"x_max":1175,"o":"m 173 595 l 502 222 l 974 222 l 645 595 l 812 595 l 1121 244 q 1159 159 1175 179 q 1040 135 1143 135 l 589 135 q 429 159 488 135 q 317 244 377 177 l 8 595 l 173 595 z "},"v":{"ha":641,"x_min":75,"x_max":994,"o":"m 486 135 l 75 595 l 266 595 l 554 264 l 827 595 l 994 595 l 601 135 l 486 135 z "},"w":{"ha":1139,"x_min":16,"x_max":1433,"o":"m 683 595 l 800 595 l 1000 274 l 1280 595 l 1433 595 l 1040 135 l 925 135 l 730 454 l 530 135 l 427 135 l 16 595 l 192 595 l 484 272 q 583 433 534 351 q 683 595 633 514 z "},"x":{"ha":952,"x_min":30,"x_max":1363,"o":"m 440 135 l 571 371 l 30 595 l 250 595 l 615 438 l 694 595 l 885 595 l 760 383 l 1363 135 l 1139 135 l 720 313 l 637 135 l 440 135 z "},"y":{"ha":940,"x_min":-8,"x_max":933,"o":"m 764 135 l 583 341 l -8 595 l 210 595 l 611 419 l 700 595 l 895 595 l 748 343 l 933 135 l 764 135 z "},"z":{"ha":881,"x_min":16,"x_max":1185,"o":"m 421 135 l 377 185 l 585 512 l 87 512 l 16 595 l 780 595 l 819 550 l 603 222 l 1109 222 l 1185 135 l 421 135 z "},"µ":{"ha":688,"x_min":2,"x_max":921,"o":"m 389 165 l 2 595 l 192 595 l 480 264 l 756 595 l 921 595 l 556 167 l 556 -325 l 389 -325 l 389 165 z "}}}
